<svg id="icon" height="20" viewBox="0 0 20 20" width="20" xmlns="http://www.w3.org/2000/svg"><path d="m14 2c.625 0 1.33763.3125 1.71263.7812l2.0312 2.8126c.3438.4062.5.9374.5 1.4062 0 .5-.1562.9688-.5 1.4062l-2.03383 2.75c-.4376.5626-.99737.8438-1.71617.8438h-2.99383v4h2.9688c.5624 0 1.0312.4375 1.0312 1 0 .5312-.375 1-1.0312 1h-7.9688c-.5312 0-1-.4375-1-1s.4375-1 1-1h3v-4h-3.75c-1.25 0-2.25-1-2.25-2.2188v-5.5c0-1.25 1-2.2812 2.25-2.2812zm-.00617 2h-8.99383v6h8.99383l2.25-3z" fill="var(--db-icon-color, currentColor)" fill-rule="evenodd"/></svg>
