<svg xmlns="http://www.w3.org/2000/svg" id="face-smiling-32" width="32" height="32" viewBox="0 0 32 32"><g fill="none" fill-rule="evenodd" class="symbols"><g fill="#282D37" class="face-smiling"><path d="M16 4c6.627 0 12 5.373 12 12s-5.373 12-12 12S4 22.627 4 16 9.373 4 16 4Zm0 1.693C10.317 5.693 5.693 10.317 5.693 16c0 5.683 4.624 10.307 10.307 10.307 5.683 0 10.307-4.624 10.307-10.307 0-5.683-4.624-10.307-10.307-10.307ZM20.961 18a1 1 0 0 1 .71 1.704C21.578 19.798 19.356 22 16 22c-3.356 0-5.578-2.202-5.671-2.296a1 1 0 1 1 1.42-1.408C11.766 18.312 13.468 20 16 20c2.502 0 4.237-1.69 4.251-1.704a.997.997 0 0 1 .71-.296ZM12.5 11a2 2 0 1 1 0 4 2 2 0 0 1 0-4Zm7 0a2 2 0 1 1 0 4 2 2 0 0 1 0-4Z" class="color"/></g></g></svg>