<svg xmlns="http://www.w3.org/2000/svg" id="face-smiling-24" width="24" height="24" viewBox="0 0 24 24"><g fill="none" fill-rule="evenodd" class="symbols"><g fill="#282D37" class="face-smiling"><path d="M12 3a9 9 0 0 1 9 9 9 9 0 0 1-9 9 9 9 0 0 1-9-9 9 9 0 0 1 9-9Zm0 2c-3.86 0-7 3.14-7 7s3.14 7 7 7 7-3.14 7-7-3.14-7-7-7Zm3.315 8.501.129.008a1 1 0 0 1 .477 1.789c-.065.049-1.612 1.202-3.922 1.202s-3.858-1.153-3.922-1.202a.997.997 0 0 1-.194-1.393A1.002 1.002 0 0 1 9.28 13.7c.011.008 1.106.8 2.719.8 1.603 0 2.696-.783 2.719-.8a.992.992 0 0 1 .598-.199h-.001ZM9.3 8.5a1.5 1.5 0 1 1 0 3 1.5 1.5 0 0 1 0-3Zm5.4 0a1.5 1.5 0 1 1 0 3 1.5 1.5 0 0 1 0-3Z" class="color"/></g></g></svg>