<svg xmlns="http://www.w3.org/2000/svg" id="face-neutral-32" width="32" height="32" viewBox="0 0 32 32"><g fill="none" fill-rule="evenodd" class="symbols"><g fill="#282D37" class="face-neutral"><path d="M16 4c6.627 0 12 5.373 12 12s-5.373 12-12 12S4 22.627 4 16 9.373 4 16 4Zm0 1.693C10.317 5.693 5.693 10.317 5.693 16c0 5.683 4.624 10.307 10.307 10.307 5.683 0 10.307-4.624 10.307-10.307 0-5.683-4.624-10.307-10.307-10.307ZM21 19a1 1 0 0 1 0 2H11a1 1 0 0 1 0-2h10Zm-8.5-8a2 2 0 1 1 0 4 2 2 0 0 1 0-4Zm7 0a2 2 0 1 1 0 4 2 2 0 0 1 0-4Z" class="color"/></g></g></svg>