<svg id="icon" height="64" viewBox="0 0 64 64" width="64" xmlns="http://www.w3.org/2000/svg"><g fill="none" fill-rule="evenodd" transform="translate(17 4)"><path d="m25 0a5 5 0 0 1 4.996 4.783l.004 46.217a5 5 0 0 1 -4.783 4.995l-20.217.005a5 5 0 0 1 -4.995-4.783l-.005-46.217a5 5 0 0 1 4.783-4.995zm-17.995 2h-2.005a3 3 0 0 0 -2.995 2.824l-.005 46.176a3 3 0 0 0 2.824 2.995l20.176.005a3 3 0 0 0 2.995-2.824l.005-46.176a3 3 0 0 0 -2.824-2.995l-2.176-.005v.034a2.964 2.964 0 0 1 -2.752 2.958l-10.282.008c-1.58 0-2.87-1.443-2.96-3zm13.995 48a1 1 0 0 1 .117 1.993l-.117.007h-12a1 1 0 0 1 -.117-1.993l.117-.007zm2.19-25.87c1.12 0 2.028.907 2.028 2.027v5.015c0 1.12-.908 2.028-2.028 2.028h-5.015a2.027 2.027 0 0 1 -2.027-2.028v-5.015c0-1.12.907-2.027 2.027-2.027zm-11.365 0c1.12 0 2.027.907 2.027 2.027v5.015c0 1.12-.907 2.028-2.027 2.028h-5.015a2.027 2.027 0 0 1 -2.028-2.028v-5.015c0-1.12.908-2.027 2.028-2.027zm11.045 1.81h-4.373a.535.535 0 0 0 -.535.535v4.374c0 .295.24.534.535.534h4.373a.535.535 0 0 0 .535-.534v-4.374a.535.535 0 0 0 -.535-.535zm-11.365 0h-4.375a.535.535 0 0 0 -.535.535v4.374c0 .295.24.534.535.534h4.373a.535.535 0 0 0 .535-.534v-4.374a.535.535 0 0 0 -.535-.535zm.321-13.185c1.12 0 2.027.907 2.027 2.027v5.018c0 1.12-.907 2.027-2.027 2.027h-5.016a2.027 2.027 0 0 1 -2.028-2.027v-5.016c0-1.12.908-2.027 2.028-2.027zm-.321 1.811h-4.375a.535.535 0 0 0 -.535.535v4.374c0 .295.24.535.535.535h4.373c.295 0 .535-.24.535-.535v-4.374a.535.535 0 0 0 -.535-.535zm9.495-12.566h-12v.034c0 .496.373.904.853.96l.113.006h10.068a.966.966 0 0 0 .958-.839l.008-.127z" fill="var(--db-icon-color, currentColor)" fill-rule="nonzero"/><path d="m21.06 20.76a.535.535 0 0 1 -.756 0l-3.093-3.093a.535.535 0 0 1 0-.756l3.092-3.092a.535.535 0 0 1 .756 0l3.093 3.093a.535.535 0 0 1 0 .756zm-5.357-4.903a2.027 2.027 0 0 0 0 2.868l3.546 3.546a2.028 2.028 0 0 0 2.867 0l3.547-3.546a2.027 2.027 0 0 0 0-2.868l-3.547-3.546a2.028 2.028 0 0 0 -2.867 0z" fill="var(--db-icon-pulse-color, #EC0016)"/></g></svg>
