<svg id="icon" height="32" viewBox="0 0 32 32" width="32" xmlns="http://www.w3.org/2000/svg"><path d="m12.648 13.871a8.012 8.012 0 0 0 3.071 3.071 8.012 8.012 0 0 0 -3.071 3.071 8.012 8.012 0 0 0 -3.071-3.071 8.012 8.012 0 0 0 3.071-3.071m0-7.577a.482.482 0 0 0 -.492.429l-.554 4.081a5.947 5.947 0 0 1 -5.091 5.091l-4.081.555c-.572.078-.572.905 0 .983l4.081.554a5.947 5.947 0 0 1 5.091 5.091l.555 4.081a.482.482 0 0 0 .492.429.482.482 0 0 0 .492-.429l.554-4.081a5.947 5.947 0 0 1 5.091-5.091l4.081-.555c.572-.078.572-.905 0-.983l-4.081-.554a5.947 5.947 0 0 1 -5.091-5.091l-.555-4.081a.482.482 0 0 0 -.492-.429zm11.708-3.084.086-.907c.038-.404.628-.404.667 0l.086.907a3.99 3.99 0 0 0 3.595 3.595l.907.086c.404.038.404.628 0 .667l-.907.086a3.99 3.99 0 0 0 -3.595 3.595l-.086.907c-.038.404-.628.404-.667 0l-.086-.907a3.99 3.99 0 0 0 -3.595-3.595l-.907-.086c-.404-.038-.404-.628 0-.667l.907-.086a3.99 3.99 0 0 0 3.595-3.595zm-5.976 22.062-1.076.096c-.537.048-.537.833 0 .881l1.076.096a2.399 2.399 0 0 1 2.176 2.176l.096 1.076c.048.537.833.537.881 0l.096-1.076a2.399 2.399 0 0 1 2.176-2.176l1.076-.096c.537-.048.537-.833 0-.881l-1.076-.096a2.399 2.399 0 0 1 -2.176-2.176l-.096-1.076c-.048-.537-.833-.537-.881 0l-.096 1.076a2.399 2.399 0 0 1 -2.176 2.176z" fill="var(--db-icon-color, currentColor)" fill-rule="evenodd"/></svg>
